<svg width="42" height="42" viewBox="0 0 42 42" fill="none" xmlns="http://www.w3.org/2000/svg">
<path d="M19.7302 20.9668L15.806 24.8911C15.6429 25.0542 15.5555 25.2545 15.5439 25.4921C15.5322 25.7298 15.6196 25.9418 15.806 26.1281C15.9923 26.3145 16.1985 26.4077 16.4245 26.4077C16.6505 26.4077 16.8566 26.3145 17.043 26.1281L20.9673 22.2038L24.8916 26.1281C25.0546 26.2912 25.255 26.3786 25.4926 26.3902C25.7302 26.4019 25.9422 26.3145 26.1286 26.1281C26.315 25.9418 26.4082 25.7356 26.4082 25.5096C26.4082 25.2836 26.315 25.0775 26.1286 24.8911L22.2043 20.9668L26.1286 17.0425C26.2917 16.8794 26.379 16.6791 26.3907 16.4415C26.4023 16.2038 26.315 15.9919 26.1286 15.8055C25.9422 15.6191 25.7361 15.5259 25.5101 15.5259C25.2841 15.5259 25.0779 15.6191 24.8916 15.8055L20.9673 19.7298L17.043 15.8055C16.8799 15.6424 16.6796 15.555 16.442 15.5434C16.2043 15.5317 15.9923 15.6191 15.806 15.8055C15.6196 15.9919 15.5264 16.198 15.5264 16.424C15.5264 16.65 15.6196 16.8561 15.806 17.0425L19.7302 20.9668ZM8.06572 33.1974C7.26082 33.1974 6.5893 32.9284 6.05116 32.3902C5.51301 31.8521 5.24335 31.18 5.24219 30.3739V11.5597C5.24219 10.7548 5.51184 10.0833 6.05116 9.54514C6.59047 9.007 7.26141 8.73734 8.06397 8.73618H33.8706C34.6743 8.73618 35.3453 9.00583 35.8834 9.54514C36.4216 10.0845 36.6912 10.756 36.6924 11.5597V30.3757C36.6924 31.1794 36.4227 31.8509 35.8834 32.3902C35.3441 32.9295 34.6732 33.1986 33.8706 33.1974H8.06572Z" fill="#FF7A18"/>
</svg>
