<svg width="31" height="29" viewBox="0 0 31 29" fill="none" xmlns="http://www.w3.org/2000/svg">
<rect width="30.75" height="28.75" rx="14.375" fill="#FF7A18"/>
<path d="M24.75 14.375C24.75 14.6734 24.6315 14.9595 24.4205 15.1705C24.2095 15.3815 23.9234 15.5 23.625 15.5H16.5V22.625C16.5 22.9234 16.3815 23.2095 16.1705 23.4205C15.9595 23.6315 15.6734 23.75 15.375 23.75C15.0766 23.75 14.7905 23.6315 14.5795 23.4205C14.3685 23.2095 14.25 22.9234 14.25 22.625V15.5H7.125C6.82663 15.5 6.54048 15.3815 6.3295 15.1705C6.11853 14.9595 6 14.6734 6 14.375C6 14.0766 6.11853 13.7905 6.3295 13.5795C6.54048 13.3685 6.82663 13.25 7.125 13.25H14.25V6.125C14.25 5.82663 14.3685 5.54048 14.5795 5.3295C14.7905 5.11853 15.0766 5 15.375 5C15.6734 5 15.9595 5.11853 16.1705 5.3295C16.3815 5.54048 16.5 5.82663 16.5 6.125V13.25H23.625C23.9234 13.25 24.2095 13.3685 24.4205 13.5795C24.6315 13.7905 24.75 14.0766 24.75 14.375Z" fill="white"/>
</svg>
