<svg width="30" height="30" viewBox="0 0 30 30" fill="none" xmlns="http://www.w3.org/2000/svg">
<rect width="30" height="30" rx="8" fill="#BDBDBD"/>
<path d="M23.75 15C23.75 15.2784 23.6394 15.5455 23.4425 15.7424C23.2455 15.9393 22.9785 16.05 22.7 16.05H16.05V22.7C16.05 22.9784 15.9394 23.2455 15.7425 23.4424C15.5455 23.6393 15.2785 23.75 15 23.75C14.7215 23.75 14.4545 23.6393 14.2575 23.4424C14.0606 23.2455 13.95 22.9784 13.95 22.7V16.05H7.3C7.02152 16.05 6.75445 15.9393 6.55754 15.7424C6.36062 15.5455 6.25 15.2784 6.25 15C6.25 14.7215 6.36062 14.4544 6.55754 14.2575C6.75445 14.0606 7.02152 13.95 7.3 13.95H13.95V7.29997C13.95 7.02149 14.0606 6.75442 14.2575 6.55751C14.4545 6.36059 14.7215 6.24997 15 6.24997C15.2785 6.24997 15.5455 6.36059 15.7425 6.55751C15.9394 6.75442 16.05 7.02149 16.05 7.29997V13.95H22.7C22.9785 13.95 23.2455 14.0606 23.4425 14.2575C23.6394 14.4544 23.75 14.7215 23.75 15Z" fill="black"/>
</svg>
