<svg width="33" height="27" viewBox="0 0 33 27" fill="none" xmlns="http://www.w3.org/2000/svg">
<g filter="url(#filter0_d_231_1484)">
<path d="M15.5167 9.5L12.3972 12.5481C12.2676 12.6748 12.1981 12.8304 12.1889 13.015C12.1796 13.1996 12.2491 13.3642 12.3972 13.509C12.5454 13.6538 12.7093 13.7261 12.8889 13.7261C13.0685 13.7261 13.2324 13.6538 13.3806 13.509L16.5 10.4609L19.6194 13.509C19.7491 13.6357 19.9083 13.7035 20.0972 13.7126C20.2861 13.7216 20.4546 13.6538 20.6028 13.509C20.7509 13.3642 20.825 13.2041 20.825 13.0286C20.825 12.853 20.7509 12.6929 20.6028 12.5481L17.4833 9.5L20.6028 6.45186C20.7324 6.32519 20.8019 6.16957 20.8111 5.985C20.8204 5.80043 20.7509 5.63576 20.6028 5.491C20.4546 5.34624 20.2907 5.27386 20.1111 5.27386C19.9315 5.27386 19.7676 5.34624 19.6194 5.491L16.5 8.53914L13.3806 5.491C13.2509 5.36433 13.0917 5.29648 12.9028 5.28743C12.7139 5.27838 12.5454 5.34624 12.3972 5.491C12.2491 5.63576 12.175 5.7959 12.175 5.97143C12.175 6.14695 12.2491 6.30709 12.3972 6.45186L15.5167 9.5ZM6.24444 19C5.60463 19 5.07083 18.791 4.64306 18.373C4.21528 17.955 4.00093 17.433 4 16.8069V2.19314C4 1.56795 4.21435 1.04636 4.64306 0.628357C5.07176 0.210357 5.60509 0.000904762 6.24306 0H26.7569C27.3958 0 27.9292 0.209452 28.3569 0.628357C28.7847 1.04726 28.9991 1.56886 29 2.19314V16.8082C29 17.4325 28.7857 17.9541 28.3569 18.373C27.9282 18.7919 27.3949 19.0009 26.7569 19H6.24444Z" fill="black"/>
</g>
<defs>
<filter id="filter0_d_231_1484" x="0" y="0" width="33" height="27" filterUnits="userSpaceOnUse" color-interpolation-filters="sRGB">
<feFlood flood-opacity="0" result="BackgroundImageFix"/>
<feColorMatrix in="SourceAlpha" type="matrix" values="0 0 0 0 0 0 0 0 0 0 0 0 0 0 0 0 0 0 127 0" result="hardAlpha"/>
<feOffset dy="4"/>
<feGaussianBlur stdDeviation="2"/>
<feComposite in2="hardAlpha" operator="out"/>
<feColorMatrix type="matrix" values="0 0 0 0 0 0 0 0 0 0 0 0 0 0 0 0 0 0 0.25 0"/>
<feBlend mode="normal" in2="BackgroundImageFix" result="effect1_dropShadow_231_1484"/>
<feBlend mode="normal" in="SourceGraphic" in2="effect1_dropShadow_231_1484" result="shape"/>
</filter>
</defs>
</svg>
